<svg
   xmlns="http://www.w3.org/2000/svg"
   width="100px"
   height="100px"
   viewBox="0 0 127.79375 127.73943"
>
   <g transform="translate(163.80223,-160.8869)">
      <path style="fill:#fff"
         d="m -99.905544,160.87861 c -0.0116,0 -0.023,0 -0.0346,0 -7.659796,0.47905 -15.311556,2.86896 -22.212596,7.39749 -14.10322,9.25456 -21.35489,24.88054 -20.53209,40.53445 0,0.004 0,0.008 0,0.0124 0.67305,-0.65199 1.36345,-1.28336 2.07327,-1.89085 0.72319,-0.61886 1.46532,-1.21422 2.22414,-1.7854 0.7588,-0.57127 1.53453,-1.11866 2.32648,-1.64074 0.79193,-0.52205 1.59962,-1.0188 2.42208,-1.49034 0.82248,-0.47154 1.65994,-0.91729 2.51045,-1.33686 0.85047,-0.41958 1.71407,-0.81312 2.59,-1.17928 0.87593,-0.36613 1.76409,-0.70517 2.6629,-1.01647 0.89882,-0.31131 1.80883,-0.59458 2.72799,-0.84956 0.91916,-0.255 1.84737,-0.48175 2.78434,-0.67902 0.93697,-0.1973 1.88222,-0.36523 2.83445,-0.50335 0.95221,-0.13811 1.91141,-0.24645 2.87632,-0.324 0.96491,-0.0775 1.93585,-0.12457 2.91093,-0.14005 0.97506,-0.0156 1.95463,0 2.93729,0.0486 0.98267,0.048 1.96816,0.12793 2.9559,0.24082 0.98774,0.1129 1.97755,0.25853 2.96778,0.4377 0.99023,0.17926 1.9807,0.39222 2.970866,0.63924 h 0.003 c 10.10351,0 18.23765,-8.13411 18.23765,-18.23765 0,-10.10354 -8.13414,-18.23712 -18.23765,-18.23712 z"
      />
   </g>
</svg>